<svg width="262" height="63" viewBox="0 0 262 63" fill="none" xmlns="http://www.w3.org/2000/svg">
<g filter="url(#filter0_d)">
<path d="M4 10C4 4.47715 8.47715 0 14 0H248C253.523 0 258 4.47715 258 10V45C258 50.5228 253.523 55 248 55H14C8.47715 55 4 50.5228 4 45V10Z" fill="#E76F51"/>
</g>
<path d="M22.5964 17.2719L26.4464 24.6199L30.3624 17.2719H33.6404L27.9644 27.4359V32.8919H24.9504V27.3919L19.2964 17.2719H22.5964ZM38.3783 33.1119C37.117 33.1119 36.0316 32.8406 35.1223 32.2979C34.2276 31.7406 33.5383 31.0072 33.0543 30.0979C32.5703 29.1886 32.3283 28.2059 32.3283 27.1499C32.3283 26.0792 32.5703 25.0892 33.0543 24.1799C33.553 23.2706 34.2496 22.5446 35.1443 22.0019C36.0536 21.4446 37.1316 21.1659 38.3783 21.1659C39.625 21.1659 40.6956 21.4446 41.5903 22.0019C42.4996 22.5446 43.1963 23.2706 43.6803 24.1799C44.1643 25.0892 44.4063 26.0792 44.4063 27.1499C44.4063 28.2059 44.1643 29.1886 43.6803 30.0979C43.1963 31.0072 42.4996 31.7406 41.5903 32.2979C40.6956 32.8406 39.625 33.1119 38.3783 33.1119ZM35.3643 27.1499C35.3643 27.8246 35.4963 28.4259 35.7603 28.9539C36.0243 29.4672 36.3836 29.8706 36.8383 30.1639C37.293 30.4572 37.8063 30.6039 38.3783 30.6039C38.9356 30.6039 39.4416 30.4572 39.8963 30.1639C40.351 29.8559 40.7103 29.4452 40.9743 28.9319C41.253 28.4039 41.3923 27.8026 41.3923 27.1279C41.3923 26.4679 41.253 25.8812 40.9743 25.3679C40.7103 24.8399 40.351 24.4292 39.8963 24.1359C39.4416 23.8279 38.9356 23.6739 38.3783 23.6739C37.8063 23.6739 37.293 23.8279 36.8383 24.1359C36.3836 24.4292 36.0243 24.8399 35.7603 25.3679C35.4963 25.8812 35.3643 26.4752 35.3643 27.1499ZM46.2861 28.5799V21.3639H49.2341V27.9419C49.2341 29.7166 49.8721 30.6039 51.1481 30.6039C51.7201 30.6039 52.2701 30.4352 52.7981 30.0979C53.3408 29.7459 53.7808 29.2179 54.1181 28.5139V21.3639H57.0661V29.5919C57.0661 29.9146 57.1174 30.1419 57.2201 30.2739C57.3228 30.3912 57.5061 30.4646 57.7701 30.4939V32.8919C57.4768 32.9506 57.2274 32.9872 57.0221 33.0019C56.8314 33.0166 56.6554 33.0239 56.4941 33.0239C55.9661 33.0239 55.5334 32.9066 55.1961 32.6719C54.8734 32.4226 54.6828 32.0852 54.6241 31.6599L54.5581 30.7359C54.0448 31.5279 53.3848 32.1219 52.5781 32.5179C51.7714 32.9139 50.8841 33.1119 49.9161 33.1119C48.7281 33.1119 47.8261 32.7306 47.2101 31.9679C46.5941 31.1906 46.2861 30.0612 46.2861 28.5799ZM70.5028 19.9339H65.5088V32.8919H62.4948V19.9339H57.5008V17.2719H70.5028V19.9339ZM70.7568 28.5799V21.3639H73.7048V27.9419C73.7048 29.7166 74.3428 30.6039 75.6188 30.6039C76.1908 30.6039 76.7408 30.4352 77.2688 30.0979C77.8115 29.7459 78.2515 29.2179 78.5888 28.5139V21.3639H81.5368V29.5919C81.5368 29.9146 81.5881 30.1419 81.6908 30.2739C81.7935 30.3912 81.9768 30.4646 82.2408 30.4939V32.8919C81.9475 32.9506 81.6981 32.9872 81.4928 33.0019C81.3021 33.0166 81.1261 33.0239 80.9648 33.0239C80.4368 33.0239 80.0041 32.9066 79.6668 32.6719C79.3441 32.4226 79.1535 32.0852 79.0948 31.6599L79.0288 30.7359C78.5155 31.5279 77.8555 32.1219 77.0488 32.5179C76.2421 32.9139 75.3548 33.1119 74.3868 33.1119C73.1988 33.1119 72.2968 32.7306 71.6808 31.9679C71.0648 31.1906 70.7568 30.0612 70.7568 28.5799ZM91.0224 33.1119C90.1424 33.1119 89.3577 32.9139 88.6684 32.5179C87.9791 32.1219 87.4364 31.5792 87.0404 30.8899V32.8919H84.4664V16.8319H87.4144V23.3879C87.8251 22.6986 88.3604 22.1559 89.0204 21.7599C89.6951 21.3639 90.4797 21.1659 91.3744 21.1659C92.3717 21.1659 93.2444 21.4446 93.9924 22.0019C94.7551 22.5446 95.3491 23.2706 95.7744 24.1799C96.1997 25.0892 96.4124 26.0866 96.4124 27.1719C96.4124 28.2866 96.1777 29.2912 95.7084 30.1859C95.2391 31.0806 94.5937 31.7919 93.7724 32.3199C92.9657 32.8479 92.0491 33.1119 91.0224 33.1119ZM90.2084 30.6039C90.8391 30.6039 91.3891 30.4499 91.8584 30.1419C92.3424 29.8339 92.7164 29.4232 92.9804 28.9099C93.2591 28.3819 93.3984 27.8099 93.3984 27.1939C93.3984 26.5632 93.2664 25.9839 93.0024 25.4559C92.7531 24.9132 92.4011 24.4806 91.9464 24.1579C91.4917 23.8352 90.9711 23.6739 90.3844 23.6739C89.7391 23.6739 89.1451 23.8939 88.6024 24.3339C88.0744 24.7592 87.6784 25.2872 87.4144 25.9179V28.6679C87.6051 29.2399 87.9791 29.7092 88.5364 30.0759C89.0937 30.4279 89.6511 30.6039 90.2084 30.6039ZM103.756 33.1119C102.509 33.1119 101.431 32.8406 100.522 32.2979C99.6271 31.7552 98.9304 31.0366 98.4318 30.1419C97.9331 29.2326 97.6838 28.2499 97.6838 27.1939C97.6838 26.1086 97.9258 25.1112 98.4098 24.2019C98.9084 23.2779 99.6124 22.5446 100.522 22.0019C101.431 21.4446 102.516 21.1659 103.778 21.1659C105.039 21.1659 106.117 21.4446 107.012 22.0019C107.906 22.5446 108.588 23.2706 109.058 24.1799C109.542 25.0746 109.784 26.0426 109.784 27.0839C109.784 27.4652 109.762 27.7952 109.718 28.0739H100.808C100.881 28.9686 101.211 29.6726 101.798 30.1859C102.399 30.6992 103.088 30.9559 103.866 30.9559C104.452 30.9559 105.002 30.8166 105.516 30.5379C106.044 30.2446 106.403 29.8632 106.594 29.3939L109.124 30.0979C108.698 30.9779 108.016 31.7039 107.078 32.2759C106.139 32.8332 105.032 33.1119 103.756 33.1119ZM100.742 26.2039H106.77C106.682 25.3386 106.352 24.6419 105.78 24.1139C105.222 23.5712 104.54 23.2999 103.734 23.2999C102.942 23.2999 102.26 23.5712 101.688 24.1139C101.13 24.6419 100.815 25.3386 100.742 26.2039Z" fill="white"/>
<path d="M172.647 21.3639C172.515 21.2172 172.237 21.0266 171.811 20.7919C171.386 20.5426 170.873 20.3226 170.271 20.1319C169.685 19.9266 169.076 19.8239 168.445 19.8239C166.788 19.8239 165.959 20.4106 165.959 21.5839C165.959 22.0092 166.091 22.3466 166.355 22.5959C166.619 22.8452 167.015 23.0579 167.543 23.2339C168.071 23.4099 168.731 23.6006 169.523 23.8059C170.55 24.0699 171.437 24.3779 172.185 24.7299C172.948 25.0819 173.527 25.5512 173.923 26.1379C174.334 26.7099 174.539 27.4726 174.539 28.4259C174.539 29.5406 174.268 30.4426 173.725 31.1319C173.197 31.8066 172.493 32.2979 171.613 32.6059C170.733 32.9139 169.78 33.0679 168.753 33.0679C167.58 33.0679 166.414 32.8919 165.255 32.5399C164.111 32.1732 163.092 31.6746 162.197 31.0439L163.539 28.4259C163.671 28.5579 163.906 28.7339 164.243 28.9539C164.581 29.1592 164.991 29.3719 165.475 29.5919C165.959 29.7972 166.487 29.9732 167.059 30.1199C167.631 30.2666 168.211 30.3399 168.797 30.3399C170.469 30.3399 171.305 29.8046 171.305 28.7339C171.305 28.2792 171.137 27.9126 170.799 27.6339C170.462 27.3552 169.985 27.1206 169.369 26.9299C168.768 26.7392 168.064 26.5266 167.257 26.2919C166.26 26.0132 165.431 25.7052 164.771 25.3679C164.126 25.0159 163.642 24.5832 163.319 24.0699C162.997 23.5419 162.835 22.8746 162.835 22.0679C162.835 20.9972 163.085 20.1026 163.583 19.3839C164.097 18.6506 164.786 18.1006 165.651 17.7339C166.517 17.3526 167.477 17.1619 168.533 17.1619C169.619 17.1619 170.631 17.3379 171.569 17.6899C172.508 18.0419 173.315 18.4452 173.989 18.8999L172.647 21.3639ZM183.391 33.1119C182.482 33.1119 181.69 32.9066 181.015 32.4959C180.34 32.0852 179.812 31.5426 179.431 30.8679V37.5779H176.483V21.3639H179.057V23.3439C179.482 22.6692 180.032 22.1412 180.707 21.7599C181.396 21.3639 182.174 21.1659 183.039 21.1659C184.08 21.1659 185.004 21.4372 185.811 21.9799C186.618 22.5079 187.256 23.2266 187.725 24.1359C188.194 25.0306 188.429 26.0206 188.429 27.1059C188.429 28.2352 188.209 29.2546 187.769 30.1639C187.344 31.0586 186.75 31.7772 185.987 32.3199C185.239 32.8479 184.374 33.1119 183.391 33.1119ZM182.401 30.6039C183.002 30.6039 183.523 30.4426 183.963 30.1199C184.418 29.7826 184.77 29.3499 185.019 28.8219C185.283 28.2792 185.415 27.7072 185.415 27.1059C185.415 26.4606 185.276 25.8812 184.997 25.3679C184.718 24.8399 184.337 24.4292 183.853 24.1359C183.384 23.8279 182.841 23.6739 182.225 23.6739C181.668 23.6739 181.11 23.8572 180.553 24.2239C179.996 24.5906 179.622 25.0526 179.431 25.6099V28.3159C179.695 28.9612 180.098 29.5039 180.641 29.9439C181.184 30.3839 181.77 30.6039 182.401 30.6039ZM195.75 33.1119C194.489 33.1119 193.404 32.8406 192.494 32.2979C191.6 31.7406 190.91 31.0072 190.426 30.0979C189.942 29.1886 189.7 28.2059 189.7 27.1499C189.7 26.0792 189.942 25.0892 190.426 24.1799C190.925 23.2706 191.622 22.5446 192.516 22.0019C193.426 21.4446 194.504 21.1659 195.75 21.1659C196.997 21.1659 198.068 21.4446 198.962 22.0019C199.872 22.5446 200.568 23.2706 201.052 24.1799C201.536 25.0892 201.778 26.0792 201.778 27.1499C201.778 28.2059 201.536 29.1886 201.052 30.0979C200.568 31.0072 199.872 31.7406 198.962 32.2979C198.068 32.8406 196.997 33.1119 195.75 33.1119ZM192.736 27.1499C192.736 27.8246 192.868 28.4259 193.132 28.9539C193.396 29.4672 193.756 29.8706 194.21 30.1639C194.665 30.4572 195.178 30.6039 195.75 30.6039C196.308 30.6039 196.814 30.4572 197.268 30.1639C197.723 29.8559 198.082 29.4452 198.346 28.9319C198.625 28.4039 198.764 27.8026 198.764 27.1279C198.764 26.4679 198.625 25.8812 198.346 25.3679C198.082 24.8399 197.723 24.4292 197.268 24.1359C196.814 23.8279 196.308 23.6739 195.75 23.6739C195.178 23.6739 194.665 23.8279 194.21 24.1359C193.756 24.4292 193.396 24.8399 193.132 25.3679C192.868 25.8812 192.736 26.4752 192.736 27.1499ZM210.504 32.2979C210.108 32.4739 209.617 32.6499 209.03 32.8259C208.458 33.0019 207.864 33.0899 207.248 33.0899C206.706 33.0899 206.207 32.9946 205.752 32.8039C205.298 32.6132 204.931 32.3126 204.652 31.9019C204.388 31.4766 204.256 30.9266 204.256 30.2519V23.6299H202.738V21.3639H204.256V17.6239H207.204V21.3639H209.624V23.6299H207.204V29.2619C207.204 29.6579 207.307 29.9439 207.512 30.1199C207.732 30.2959 207.996 30.3839 208.304 30.3839C208.612 30.3839 208.913 30.3326 209.206 30.2299C209.5 30.1272 209.734 30.0392 209.91 29.9659L210.504 32.2979ZM212.04 19.7579V16.8319H214.988V19.7579H212.04ZM212.04 32.8919V21.3639H214.988V32.8919H212.04ZM218.351 32.8919V24.2239H216.833V21.9799H218.351V21.2759C218.351 19.8532 218.696 18.7239 219.385 17.8879C220.089 17.0372 221.028 16.6119 222.201 16.6119C223.14 16.6119 224.086 16.8392 225.039 17.2939L224.445 19.5159C224.225 19.3986 223.961 19.3032 223.653 19.2299C223.36 19.1419 223.088 19.0979 222.839 19.0979C221.812 19.0979 221.299 19.7872 221.299 21.1659V21.9799H224.115V24.2239H221.299V32.8919H218.351ZM226.032 35.1359C226.574 35.2826 227.014 35.3559 227.352 35.3559C227.748 35.3559 228.063 35.1872 228.298 34.8499C228.547 34.5272 228.826 33.8746 229.134 32.8919L224.58 21.3639H227.638L230.74 29.8779L233.468 21.3639H236.284L231.444 35.1799C231.18 35.9719 230.703 36.6246 230.014 37.1379C229.339 37.6659 228.503 37.9299 227.506 37.9299C227.022 37.9299 226.53 37.8492 226.032 37.6879V35.1359Z" fill="white"/>
<path fill-rule="evenodd" clip-rule="evenodd" d="M126.952 18.5811L125.446 20.218L131.084 26.3442L125.446 32.4704L126.952 34.1073L134.096 26.3442L126.952 18.5811ZM133.168 18.5811L131.662 20.218L137.3 26.3442L131.662 32.4704L133.168 34.1073L140.312 26.3442L133.168 18.5811Z" fill="white"/>
<defs>
<filter id="filter0_d" x="0" y="0" width="262" height="63" filterUnits="userSpaceOnUse" color-interpolation-filters="sRGB">
<feFlood flood-opacity="0" result="BackgroundImageFix"/>
<feColorMatrix in="SourceAlpha" type="matrix" values="0 0 0 0 0 0 0 0 0 0 0 0 0 0 0 0 0 0 127 0"/>
<feOffset dy="4"/>
<feGaussianBlur stdDeviation="2"/>
<feColorMatrix type="matrix" values="0 0 0 0 0 0 0 0 0 0 0 0 0 0 0 0 0 0 0.25 0"/>
<feBlend mode="normal" in2="BackgroundImageFix" result="effect1_dropShadow"/>
<feBlend mode="normal" in="SourceGraphic" in2="effect1_dropShadow" result="shape"/>
</filter>
</defs>
</svg>
