<svg width="485" height="521" viewBox="0 0 485 521" fill="none" xmlns="http://www.w3.org/2000/svg">
<path fill-rule="evenodd" clip-rule="evenodd" d="M226.047 0.723021C272.204 6.30665 299.985 52.4627 335.857 82.0274C367.061 107.745 399.394 130.057 422.891 162.959C450.784 202.015 490.646 242.359 484.333 289.928C478.022 337.485 421.863 358.974 391.904 396.455C360.27 436.033 350.962 498.647 303.437 516.248C255.974 533.825 206.734 498.093 158.449 482.914C111.187 468.056 54.2999 467.02 23.4897 428.24C-7.17006 389.649 0.78959 334.384 1.29592 285.109C1.73637 242.244 9.77051 201.186 26.2295 161.602C43.1873 120.818 63.3021 80.9253 97.714 53.2193C134.454 23.639 179.212 -4.94264 226.047 0.723021Z" fill="#1B4352" fill-opacity="0.65"/>
</svg>
