<svg width="766" height="790" viewBox="0 0 766 790" fill="none" xmlns="http://www.w3.org/2000/svg">
<path fill-rule="evenodd" clip-rule="evenodd" d="M112.543 492.177C92.8185 434.223 168.231 387.122 191.613 330.545C208.849 288.84 209.048 243.164 231.608 204.082C259.195 156.293 285.763 102.534 336.18 80.107C389.138 56.5506 453.671 58.0181 506.531 81.7918C557.725 104.816 590.58 155.393 615.459 205.712C637.023 249.326 627.641 299.372 637.648 346.985C649.205 401.97 696.694 453.678 678.77 506.929C660.876 560.093 594.78 576.168 549.406 609.151C498.371 646.249 457.97 722.327 395.604 712.767C331.227 702.899 323.334 606.656 271.962 566.622C224.746 529.826 131.83 548.845 112.543 492.177Z" fill="#37525C"/>
</svg>
