<svg width="675" height="583" viewBox="0 0 675 583" fill="none" xmlns="http://www.w3.org/2000/svg">
<path fill-rule="evenodd" clip-rule="evenodd" d="M343.862 0.074321C406.943 -2.01819 459.757 40.4952 512.895 74.5544C569.644 110.928 636.536 141.417 661.847 203.89C687.813 267.981 668.793 340.077 647.07 405.728C625.452 471.064 602.009 548.248 538.856 575.596C476.529 602.585 411.767 538.401 343.862 537.027C278.327 535.701 216.505 589.127 154.518 567.818C85.2113 543.992 4.9898 492.008 0.180521 418.878C-4.83771 342.571 96.1342 305.724 132.871 238.654C159.312 190.382 146.322 126.734 182.784 85.5047C224.056 38.8352 281.594 2.13982 343.862 0.074321Z" fill="#215D73"/>
</svg>
