<svg width="262" height="63" viewBox="0 0 262 63" fill="none" xmlns="http://www.w3.org/2000/svg">
<g filter="url(#filter0_d)">
<path d="M4 10C4 4.47715 8.47715 0 14 0H248C253.523 0 258 4.47715 258 10V45C258 50.5228 253.523 55 248 55H14C8.47715 55 4 50.5228 4 45V10Z" fill="#2A9D8F"/>
</g>
<path d="M38.242 21.3639C38.11 21.2172 37.8313 21.0266 37.406 20.7919C36.9807 20.5426 36.4673 20.3226 35.866 20.1319C35.2793 19.9266 34.6707 19.8239 34.04 19.8239C32.3827 19.8239 31.554 20.4106 31.554 21.5839C31.554 22.0092 31.686 22.3466 31.95 22.5959C32.214 22.8452 32.61 23.0579 33.138 23.2339C33.666 23.4099 34.326 23.6006 35.118 23.8059C36.1447 24.0699 37.032 24.3779 37.78 24.7299C38.5427 25.0819 39.122 25.5512 39.518 26.1379C39.9287 26.7099 40.134 27.4726 40.134 28.4259C40.134 29.5406 39.8627 30.4426 39.32 31.1319C38.792 31.8066 38.088 32.2979 37.208 32.6059C36.328 32.9139 35.3747 33.0679 34.348 33.0679C33.1747 33.0679 32.0087 32.8919 30.85 32.5399C29.706 32.1732 28.6867 31.6746 27.792 31.0439L29.134 28.4259C29.266 28.5579 29.5007 28.7339 29.838 28.9539C30.1753 29.1592 30.586 29.3719 31.07 29.5919C31.554 29.7972 32.082 29.9732 32.654 30.1199C33.226 30.2666 33.8053 30.3399 34.392 30.3399C36.064 30.3399 36.9 29.8046 36.9 28.7339C36.9 28.2792 36.7313 27.9126 36.394 27.6339C36.0567 27.3552 35.58 27.1206 34.964 26.9299C34.3627 26.7392 33.6587 26.5266 32.852 26.2919C31.8547 26.0132 31.026 25.7052 30.366 25.3679C29.7207 25.0159 29.2367 24.5832 28.914 24.0699C28.5913 23.5419 28.43 22.8746 28.43 22.0679C28.43 20.9972 28.6793 20.1026 29.178 19.3839C29.6913 18.6506 30.3807 18.1006 31.246 17.7339C32.1113 17.3526 33.072 17.1619 34.128 17.1619C35.2133 17.1619 36.2253 17.3379 37.164 17.6899C38.1027 18.0419 38.9093 18.4452 39.584 18.8999L38.242 21.3639ZM48.9857 33.1119C48.0764 33.1119 47.2844 32.9066 46.6097 32.4959C45.9351 32.0852 45.4071 31.5426 45.0257 30.8679V37.5779H42.0777V21.3639H44.6517V23.3439C45.0771 22.6692 45.6271 22.1412 46.3017 21.7599C46.9911 21.3639 47.7684 21.1659 48.6337 21.1659C49.6751 21.1659 50.5991 21.4372 51.4057 21.9799C52.2124 22.5079 52.8504 23.2266 53.3197 24.1359C53.7891 25.0306 54.0237 26.0206 54.0237 27.1059C54.0237 28.2352 53.8037 29.2546 53.3637 30.1639C52.9384 31.0586 52.3444 31.7772 51.5817 32.3199C50.8337 32.8479 49.9684 33.1119 48.9857 33.1119ZM47.9957 30.6039C48.5971 30.6039 49.1177 30.4426 49.5577 30.1199C50.0124 29.7826 50.3644 29.3499 50.6137 28.8219C50.8777 28.2792 51.0097 27.7072 51.0097 27.1059C51.0097 26.4606 50.8704 25.8812 50.5917 25.3679C50.3131 24.8399 49.9317 24.4292 49.4477 24.1359C48.9784 23.8279 48.4357 23.6739 47.8197 23.6739C47.2624 23.6739 46.7051 23.8572 46.1477 24.2239C45.5904 24.5906 45.2164 25.0526 45.0257 25.6099V28.3159C45.2897 28.9612 45.6931 29.5039 46.2357 29.9439C46.7784 30.3839 47.3651 30.6039 47.9957 30.6039ZM61.3451 33.1119C60.0838 33.1119 58.9984 32.8406 58.0891 32.2979C57.1944 31.7406 56.5051 31.0072 56.0211 30.0979C55.5371 29.1886 55.2951 28.2059 55.2951 27.1499C55.2951 26.0792 55.5371 25.0892 56.0211 24.1799C56.5198 23.2706 57.2164 22.5446 58.1111 22.0019C59.0204 21.4446 60.0984 21.1659 61.3451 21.1659C62.5918 21.1659 63.6624 21.4446 64.5571 22.0019C65.4664 22.5446 66.1631 23.2706 66.6471 24.1799C67.1311 25.0892 67.3731 26.0792 67.3731 27.1499C67.3731 28.2059 67.1311 29.1886 66.6471 30.0979C66.1631 31.0072 65.4664 31.7406 64.5571 32.2979C63.6624 32.8406 62.5918 33.1119 61.3451 33.1119ZM58.3311 27.1499C58.3311 27.8246 58.4631 28.4259 58.7271 28.9539C58.9911 29.4672 59.3504 29.8706 59.8051 30.1639C60.2598 30.4572 60.7731 30.6039 61.3451 30.6039C61.9024 30.6039 62.4084 30.4572 62.8631 30.1639C63.3178 29.8559 63.6771 29.4452 63.9411 28.9319C64.2198 28.4039 64.3591 27.8026 64.3591 27.1279C64.3591 26.4679 64.2198 25.8812 63.9411 25.3679C63.6771 24.8399 63.3178 24.4292 62.8631 24.1359C62.4084 23.8279 61.9024 23.6739 61.3451 23.6739C60.7731 23.6739 60.2598 23.8279 59.8051 24.1359C59.3504 24.4292 58.9911 24.8399 58.7271 25.3679C58.4631 25.8812 58.3311 26.4752 58.3311 27.1499ZM76.099 32.2979C75.703 32.4739 75.2117 32.6499 74.625 32.8259C74.053 33.0019 73.459 33.0899 72.843 33.0899C72.3003 33.0899 71.8017 32.9946 71.347 32.8039C70.8923 32.6132 70.5257 32.3126 70.247 31.9019C69.983 31.4766 69.851 30.9266 69.851 30.2519V23.6299H68.333V21.3639H69.851V17.6239H72.799V21.3639H75.219V23.6299H72.799V29.2619C72.799 29.6579 72.9017 29.9439 73.107 30.1199C73.327 30.2959 73.591 30.3839 73.899 30.3839C74.207 30.3839 74.5077 30.3326 74.801 30.2299C75.0943 30.1272 75.329 30.0392 75.505 29.9659L76.099 32.2979ZM77.6344 19.7579V16.8319H80.5824V19.7579H77.6344ZM77.6344 32.8919V21.3639H80.5824V32.8919H77.6344ZM83.9458 32.8919V24.2239H82.4278V21.9799H83.9458V21.2759C83.9458 19.8532 84.2905 18.7239 84.9798 17.8879C85.6838 17.0372 86.6225 16.6119 87.7958 16.6119C88.7345 16.6119 89.6805 16.8392 90.6338 17.2939L90.0398 19.5159C89.8198 19.3986 89.5558 19.3032 89.2478 19.2299C88.9545 19.1419 88.6831 19.0979 88.4338 19.0979C87.4071 19.0979 86.8938 19.7872 86.8938 21.1659V21.9799H89.7098V24.2239H86.8938V32.8919H83.9458ZM91.6264 35.1359C92.169 35.2826 92.609 35.3559 92.9464 35.3559C93.3424 35.3559 93.6577 35.1872 93.8924 34.8499C94.1417 34.5272 94.4204 33.8746 94.7284 32.8919L90.1744 21.3639H93.2324L96.3344 29.8779L99.0624 21.3639H101.878L97.0384 35.1799C96.7744 35.9719 96.2977 36.6246 95.6084 37.1379C94.9337 37.6659 94.0977 37.9299 93.1004 37.9299C92.6164 37.9299 92.125 37.8492 91.6264 37.6879V35.1359Z" fill="white"/>
<path d="M157.002 17.2719L160.852 24.6199L164.768 17.2719H168.046L162.37 27.4359V32.8919H159.356V27.3919L153.702 17.2719H157.002ZM172.784 33.1119C171.522 33.1119 170.437 32.8406 169.528 32.2979C168.633 31.7406 167.944 31.0072 167.46 30.0979C166.976 29.1886 166.734 28.2059 166.734 27.1499C166.734 26.0792 166.976 25.0892 167.46 24.1799C167.958 23.2706 168.655 22.5446 169.55 22.0019C170.459 21.4446 171.537 21.1659 172.784 21.1659C174.03 21.1659 175.101 21.4446 175.996 22.0019C176.905 22.5446 177.602 23.2706 178.086 24.1799C178.57 25.0892 178.812 26.0792 178.812 27.1499C178.812 28.2059 178.57 29.1886 178.086 30.0979C177.602 31.0072 176.905 31.7406 175.996 32.2979C175.101 32.8406 174.03 33.1119 172.784 33.1119ZM169.77 27.1499C169.77 27.8246 169.902 28.4259 170.166 28.9539C170.43 29.4672 170.789 29.8706 171.244 30.1639C171.698 30.4572 172.212 30.6039 172.784 30.6039C173.341 30.6039 173.847 30.4572 174.302 30.1639C174.756 29.8559 175.116 29.4452 175.38 28.9319C175.658 28.4039 175.798 27.8026 175.798 27.1279C175.798 26.4679 175.658 25.8812 175.38 25.3679C175.116 24.8399 174.756 24.4292 174.302 24.1359C173.847 23.8279 173.341 23.6739 172.784 23.6739C172.212 23.6739 171.698 23.8279 171.244 24.1359C170.789 24.4292 170.43 24.8399 170.166 25.3679C169.902 25.8812 169.77 26.4752 169.77 27.1499ZM180.691 28.5799V21.3639H183.639V27.9419C183.639 29.7166 184.277 30.6039 185.553 30.6039C186.125 30.6039 186.675 30.4352 187.203 30.0979C187.746 29.7459 188.186 29.2179 188.523 28.5139V21.3639H191.471V29.5919C191.471 29.9146 191.523 30.1419 191.625 30.2739C191.728 30.3912 191.911 30.4646 192.175 30.4939V32.8919C191.882 32.9506 191.633 32.9872 191.427 33.0019C191.237 33.0166 191.061 33.0239 190.899 33.0239C190.371 33.0239 189.939 32.9066 189.601 32.6719C189.279 32.4226 189.088 32.0852 189.029 31.6599L188.963 30.7359C188.45 31.5279 187.79 32.1219 186.983 32.5179C186.177 32.9139 185.289 33.1119 184.321 33.1119C183.133 33.1119 182.231 32.7306 181.615 31.9679C180.999 31.1906 180.691 30.0612 180.691 28.5799ZM204.908 19.9339H199.914V32.8919H196.9V19.9339H191.906V17.2719H204.908V19.9339ZM205.162 28.5799V21.3639H208.11V27.9419C208.11 29.7166 208.748 30.6039 210.024 30.6039C210.596 30.6039 211.146 30.4352 211.674 30.0979C212.217 29.7459 212.657 29.2179 212.994 28.5139V21.3639H215.942V29.5919C215.942 29.9146 215.993 30.1419 216.096 30.2739C216.199 30.3912 216.382 30.4646 216.646 30.4939V32.8919C216.353 32.9506 216.103 32.9872 215.898 33.0019C215.707 33.0166 215.531 33.0239 215.37 33.0239C214.842 33.0239 214.409 32.9066 214.072 32.6719C213.749 32.4226 213.559 32.0852 213.5 31.6599L213.434 30.7359C212.921 31.5279 212.261 32.1219 211.454 32.5179C210.647 32.9139 209.76 33.1119 208.792 33.1119C207.604 33.1119 206.702 32.7306 206.086 31.9679C205.47 31.1906 205.162 30.0612 205.162 28.5799ZM225.428 33.1119C224.548 33.1119 223.763 32.9139 223.074 32.5179C222.384 32.1219 221.842 31.5792 221.446 30.8899V32.8919H218.872V16.8319H221.82V23.3879C222.23 22.6986 222.766 22.1559 223.426 21.7599C224.1 21.3639 224.885 21.1659 225.78 21.1659C226.777 21.1659 227.65 21.4446 228.398 22.0019C229.16 22.5446 229.754 23.2706 230.18 24.1799C230.605 25.0892 230.818 26.0866 230.818 27.1719C230.818 28.2866 230.583 29.2912 230.114 30.1859C229.644 31.0806 228.999 31.7919 228.178 32.3199C227.371 32.8479 226.454 33.1119 225.428 33.1119ZM224.614 30.6039C225.244 30.6039 225.794 30.4499 226.264 30.1419C226.748 29.8339 227.122 29.4232 227.386 28.9099C227.664 28.3819 227.804 27.8099 227.804 27.1939C227.804 26.5632 227.672 25.9839 227.408 25.4559C227.158 24.9132 226.806 24.4806 226.352 24.1579C225.897 23.8352 225.376 23.6739 224.79 23.6739C224.144 23.6739 223.55 23.8939 223.008 24.3339C222.48 24.7592 222.084 25.2872 221.82 25.9179V28.6679C222.01 29.2399 222.384 29.7092 222.942 30.0759C223.499 30.4279 224.056 30.6039 224.614 30.6039ZM238.161 33.1119C236.914 33.1119 235.836 32.8406 234.927 32.2979C234.032 31.7552 233.336 31.0366 232.837 30.1419C232.338 29.2326 232.089 28.2499 232.089 27.1939C232.089 26.1086 232.331 25.1112 232.815 24.2019C233.314 23.2779 234.018 22.5446 234.927 22.0019C235.836 21.4446 236.922 21.1659 238.183 21.1659C239.444 21.1659 240.522 21.4446 241.417 22.0019C242.312 22.5446 242.994 23.2706 243.463 24.1799C243.947 25.0746 244.189 26.0426 244.189 27.0839C244.189 27.4652 244.167 27.7952 244.123 28.0739H235.213C235.286 28.9686 235.616 29.6726 236.203 30.1859C236.804 30.6992 237.494 30.9559 238.271 30.9559C238.858 30.9559 239.408 30.8166 239.921 30.5379C240.449 30.2446 240.808 29.8632 240.999 29.3939L243.529 30.0979C243.104 30.9779 242.422 31.7039 241.483 32.2759C240.544 32.8332 239.437 33.1119 238.161 33.1119ZM235.147 26.2039H241.175C241.087 25.3386 240.757 24.6419 240.185 24.1139C239.628 23.5712 238.946 23.2999 238.139 23.2999C237.347 23.2999 236.665 23.5712 236.093 24.1139C235.536 24.6419 235.22 25.3386 235.147 26.2039Z" fill="white"/>
<path fill-rule="evenodd" clip-rule="evenodd" d="M126.952 18.5811L125.446 20.218L131.084 26.3442L125.446 32.4704L126.952 34.1073L134.096 26.3442L126.952 18.5811ZM133.168 18.5811L131.662 20.218L137.3 26.3442L131.662 32.4704L133.168 34.1073L140.312 26.3442L133.168 18.5811Z" fill="white"/>
<defs>
<filter id="filter0_d" x="0" y="0" width="262" height="63" filterUnits="userSpaceOnUse" color-interpolation-filters="sRGB">
<feFlood flood-opacity="0" result="BackgroundImageFix"/>
<feColorMatrix in="SourceAlpha" type="matrix" values="0 0 0 0 0 0 0 0 0 0 0 0 0 0 0 0 0 0 127 0"/>
<feOffset dy="4"/>
<feGaussianBlur stdDeviation="2"/>
<feColorMatrix type="matrix" values="0 0 0 0 0 0 0 0 0 0 0 0 0 0 0 0 0 0 0.25 0"/>
<feBlend mode="normal" in2="BackgroundImageFix" result="effect1_dropShadow"/>
<feBlend mode="normal" in="SourceGraphic" in2="effect1_dropShadow" result="shape"/>
</filter>
</defs>
</svg>
