<?xml version="1.0" encoding="UTF-8" standalone="no"?>
<!DOCTYPE svg PUBLIC "-//W3C//DTD SVG 1.1//EN" "http://www.w3.org/Graphics/SVG/1.1/DTD/svg11.dtd">
<svg width="100%" height="100%" viewBox="0 0 1440 1024" version="1.1" xmlns="http://www.w3.org/2000/svg" xmlns:xlink="http://www.w3.org/1999/xlink" xml:space="preserve" xmlns:serif="http://www.serif.com/" style="fill-rule:evenodd;clip-rule:evenodd;stroke-linejoin:round;stroke-miterlimit:2;">
    <rect x="0" y="0" width="1440" height="1024" style="fill:rgb(16,35,43);"/>
    <g transform="matrix(1,0,0,1,914.088,576.873)">
        <path d="M343.862,0.074C406.943,-2.018 459.757,40.495 512.895,74.554C569.644,110.928 636.536,141.417 661.847,203.89C687.813,267.981 668.793,340.077 647.07,405.728C625.452,471.064 602.009,548.248 538.856,575.596C476.529,602.585 411.767,538.401 343.862,537.027C278.327,535.701 216.505,589.127 154.518,567.818C85.211,543.992 4.99,492.008 0.181,418.878C-4.838,342.571 96.134,305.724 132.871,238.654C159.312,190.382 146.322,126.734 182.784,85.505C224.056,38.835 281.594,2.14 343.862,0.074Z" style="fill:rgb(33,93,115);"/>
    </g>
    <g transform="matrix(1,0,0,1,117.415,-264.265)">
        <path d="M623.059,478.327C603.97,523.928 548.232,539.744 503.68,561.182C462.845,580.831 420.731,594.457 375.507,597.445C326.505,600.684 277.291,598.868 232.324,579.116C181.158,556.641 112.148,532.898 103.062,477.771C93.396,419.122 181.297,385.351 190.717,326.668C200.347,266.678 127.633,205.618 155.421,151.589C181.487,100.91 255.143,98.078 311.747,91.347C363.102,85.241 418.413,87.134 461.89,115.149C502.08,141.046 509.771,194.539 534.956,235.174C556.175,269.408 584.557,297.334 598.276,335.199C615.113,381.666 642.14,432.745 623.059,478.327Z" style="fill:rgb(7,47,62);fill-opacity:0.61;"/>
    </g>
    <g transform="matrix(1,0,0,1,-246.491,-341.037)">
        <path d="M112.543,492.177C92.819,434.223 168.231,387.122 191.613,330.545C208.849,288.84 209.048,243.164 231.608,204.082C259.195,156.293 285.763,102.534 336.18,80.107C389.138,56.551 453.671,58.018 506.531,81.792C557.725,104.816 590.58,155.393 615.459,205.712C637.023,249.326 627.641,299.372 637.648,346.985C649.205,401.97 696.694,453.678 678.77,506.929C660.876,560.093 594.78,576.168 549.406,609.151C498.371,646.249 457.97,722.327 395.604,712.767C331.227,702.899 323.334,606.656 271.962,566.622C224.746,529.826 131.83,548.845 112.543,492.177Z" style="fill:rgb(55,82,92);fill-opacity:0.58;"/>
    </g>
    <g transform="matrix(1,0,0,1,-137.202,681.017)">
        <path d="M226.047,0.723C272.204,6.307 299.985,52.463 335.857,82.027C367.061,107.745 399.394,130.057 422.891,162.959C450.784,202.015 490.646,242.359 484.333,289.928C478.022,337.485 421.863,358.974 391.904,396.455C360.27,436.033 350.962,498.647 303.437,516.248C255.974,533.825 206.734,498.093 158.449,482.914C111.187,468.056 54.3,467.02 23.49,428.24C-7.17,389.649 0.79,334.384 1.296,285.109C1.736,242.244 9.771,201.186 26.23,161.602C43.187,120.818 63.302,80.925 97.714,53.219C134.454,23.639 179.212,-4.943 226.047,0.723Z" style="fill:rgb(27,67,82);fill-opacity:0.84;"/>
    </g>
    <g transform="matrix(1,0,0,1,1162.04,348.545)">
        <path d="M265.013,16.213C321.933,14.859 386.203,-17.577 429.285,19.648C472.859,57.298 455.374,125.761 458.354,183.271C461.504,244.039 492.372,318.119 446.846,358.494C401.36,398.834 331.921,356.902 271.66,348.842C226.135,342.752 182.428,341.034 142.794,317.822C86.942,285.113 13.378,256.446 4.434,192.342C-4.748,126.532 47.227,64.638 102.278,27.427C149.109,-4.226 208.504,17.558 265.013,16.213Z" style="fill:rgb(33,95,117);fill-opacity:0.33;"/>
    </g>
</svg>
