<svg width="737" height="717" viewBox="0 0 737 717" fill="none" xmlns="http://www.w3.org/2000/svg">
<path fill-rule="evenodd" clip-rule="evenodd" d="M623.059 478.327C603.97 523.928 548.232 539.744 503.68 561.182C462.845 580.831 420.731 594.457 375.507 597.445C326.505 600.684 277.291 598.868 232.324 579.116C181.158 556.641 112.148 532.898 103.062 477.771C93.3959 419.122 181.297 385.351 190.717 326.668C200.347 266.678 127.633 205.618 155.421 151.589C181.487 100.91 255.143 98.0776 311.747 91.3471C363.102 85.2409 418.413 87.134 461.89 115.149C502.08 141.046 509.771 194.539 534.956 235.174C556.175 269.408 584.557 297.334 598.276 335.199C615.113 381.666 642.14 432.745 623.059 478.327Z" fill="#072F3E" fill-opacity="0.61"/>
</svg>
