<svg width="449" height="326" viewBox="0 0 449 326" fill="none" xmlns="http://www.w3.org/2000/svg">
<path fill-rule="evenodd" clip-rule="evenodd" d="M-121.457 104.177C-141.182 46.2228 -65.7691 -0.878135 -42.3865 -57.4553C-25.1506 -99.1599 -24.9517 -144.836 -2.3915 -183.918C25.1954 -231.707 51.7627 -285.466 102.18 -307.893C155.138 -331.449 219.671 -329.982 272.531 -306.208C323.725 -283.184 356.58 -232.607 381.459 -182.288C403.023 -138.674 393.641 -88.6281 403.648 -41.0145C415.205 13.9704 462.694 65.6781 444.77 118.929C426.876 172.093 360.78 188.168 315.406 221.151C264.371 258.249 223.97 334.327 161.604 324.767C97.2266 314.899 89.334 218.656 37.962 178.622C-9.25416 141.826 -102.17 160.845 -121.457 104.177Z" fill="#37525C"/>
</svg>
