<svg width="449" height="362" viewBox="0 0 449 362" fill="none" xmlns="http://www.w3.org/2000/svg">
<path fill-rule="evenodd" clip-rule="evenodd" d="M190.047 0.723021C236.204 6.30665 263.985 52.4627 299.857 82.0274C331.061 107.745 363.394 130.057 386.891 162.959C414.784 202.015 454.646 242.359 448.333 289.928C442.022 337.485 385.863 358.974 355.904 396.455C324.27 436.033 314.962 498.647 267.437 516.248C219.974 533.825 170.734 498.093 122.449 482.914C75.1869 468.056 18.2999 467.02 -12.5103 428.24C-43.1701 389.649 -35.2104 334.384 -34.7041 285.109C-34.2636 242.244 -26.2295 201.186 -9.7705 161.602C7.1873 120.818 27.3021 80.9253 61.714 53.2193C98.4538 23.639 143.212 -4.94264 190.047 0.723021Z" fill="#1B4352" fill-opacity="0.65"/>
</svg>
