<svg width="528" height="285" viewBox="0 0 528 285" fill="none" xmlns="http://www.w3.org/2000/svg">
<path fill-rule="evenodd" clip-rule="evenodd" d="M521.059 164.327C501.97 209.928 446.232 225.744 401.68 247.182C360.845 266.831 318.731 280.457 273.507 283.445C224.505 286.684 175.29 284.868 130.324 265.116C79.1583 242.641 10.1476 218.898 1.0619 163.771C-8.60415 105.122 79.297 71.3512 88.7169 12.6682C98.3467 -47.3222 25.633 -108.382 53.4214 -162.411C79.4867 -213.09 153.143 -215.922 209.747 -222.653C261.102 -228.759 316.413 -226.866 359.89 -198.851C400.08 -172.954 407.771 -119.461 432.956 -78.8264C454.175 -44.592 482.557 -16.6656 496.276 21.1993C513.113 67.6661 540.14 118.745 521.059 164.327Z" fill="#072F3E" fill-opacity="0.61"/>
</svg>
